PathFileType	4	(X/Y/Z)	C:\Users\Basilio\Documents\Thesis Gigler\squatting_fais\c3dfiles\040\SJ_pre4\markers_experimental.trc
DataRate	CameraRate	NumFrames	NumMarkers	Units	OrigDataRate	OrigDataStartFrame	OrigNumFrames
200.000000	200.000000	4	63	mm	200.000000	594	1189
Frame#	Time	FHD			LBHD			RBHD			C7			T10			CLAV			LSHO			LUUPA			LMUPA			LDUPA			LLEP			LMEP			LRAD			LUL			LRFIN			RSHO			RUPA1			RMUPA			RDUPA			RLEP			RMEP			RRAD			RUL			RUFIN			LASI			RASI			USACR			LSACR			RSACR			LTHI1			LTHI2			LTHI3			LTHI4			LLFC			LMFC			LTIB1			LTIB2			LTIB3			LTIB4			LLMAL			LMMAL			LHEE			LMT1			LMT2			LMT5			RTHI			RTHI2			RTHI3			RTHI4			RLFC			RMFC			RTIB1			RTIB2			RTIB3			RTIB4			RLMAL			RMMAL			RHEE			RMT1			RMT2			RMT5			*61			*62			
		X1	Y1	Z1	X2	Y2	Z2	X3	Y3	Z3	X4	Y4	Z4	X5	Y5	Z5	X6	Y6	Z6	X7	Y7	Z7	X8	Y8	Z8	X9	Y9	Z9	X10	Y10	Z10	X11	Y11	Z11	X12	Y12	Z12	X13	Y13	Z13	X14	Y14	Z14	X15	Y15	Z15	X16	Y16	Z16	X17	Y17	Z17	X18	Y18	Z18	X19	Y19	Z19	X20	Y20	Z20	X21	Y21	Z21	X22	Y22	Z22	X23	Y23	Z23	X24	Y24	Z24	X25	Y25	Z25	X26	Y26	Z26	X27	Y27	Z27	X28	Y28	Z28	X29	Y29	Z29	X30	Y30	Z30	X31	Y31	Z31	X32	Y32	Z32	X33	Y33	Z33	X34	Y34	Z34	X35	Y35	Z35	X36	Y36	Z36	X37	Y37	Z37	X38	Y38	Z38	X39	Y39	Z39	X40	Y40	Z40	X41	Y41	Z41	X42	Y42	Z42	X43	Y43	Z43	X44	Y44	Z44	X45	Y45	Z45	X46	Y46	Z46	X47	Y47	Z47	X48	Y48	Z48	X49	Y49	Z49	X50	Y50	Z50	X51	Y51	Z51	X52	Y52	Z52	X53	Y53	Z53	X54	Y54	Z54	X55	Y55	Z55	X56	Y56	Z56	X57	Y57	Z57	X58	Y58	Z58	X59	Y59	Z59	X60	Y60	Z60	X61	Y61	Z61	X62	Y62	Z62	X63	Y63	Z63	

595	2.97	-16.72385406494141	1026.241943359375	-888.8569335937502	-145.724105834961	985.1737060546877	-927.4915161132815	-200.2890625000001	954.9829101562502	-794.1428833007815	-217.8316192626954	892.9810180664065	-845.4448242187502	-474.4661560058595	722.2768554687501	-858.4937744140627	-156.2374572753907	751.9271850585939	-845.2047119140627	-127.4391784667969	797.0669555664065	-1011.532836914063	-229.2591247558594	724.0754394531251	-1181.5185546875	-257.7807006835938	685.2119750976564	-1172.340942382813	-275.9368286132813	699.7440795898439	-1228.084716796875	-326.6284484863282	684.6430664062501	-1272.501708984375	-368.2936706542969	746.7445068359376	-1259.288818359375	-563.6232910156251	602.7920532226564	-1110.019775390625	-535.4077758789064	537.6715698242189	-1132.134887695313	-526.6059570312501	598.7059936523439	-1051.5576171875	-130.38134765625	783.1536254882815	-679.8382568359376	-251.1261291503907	770.2243652343752	-509.6153869628907	-275.5752258300782	726.1439819335939	-507.674774169922	-299.2484130859376	755.1579589843751	-461.2102355957032	-354.7499084472657	724.7218017578126	-424.1046142578126	-408.9130249023439	784.5173950195315	-459.3520507812501	-529.4856567382814	603.7615966796876	-617.4697265625001	-514.4279174804689	540.2157592773439	-577.6670532226564	-480.2165527343751	590.1029052734376	-668.7057495117189	-467.3771057128907	512.5643310546876	-973.710876464844	-472.4450073242189	509.6181030273439	-765.5488281250001	-613.2119140625001	618.5221557617189	-861.798034667969	-636.4421386718751	596.5068969726564	-891.2248535156252	-642.7575683593751	596.1066284179689	-837.164245605469	-426.2269592285157	432.9875793457032	-1097.275268554688	-349.2984924316407	466.6299133300782	-1116.073608398438	-341.3943176269532	512.2400512695314	-1103.737915039063	-298.7337036132813	436.9192504882814	-1124.225219726563	-181.3013916015625	441.985321044922	-1137.858154296875	-156.6037750244141	395.3925781250001	-1011.899108886719	-225.9442749023438	245.7129821777344	-1111.991333007813	-314.6945495605469	257.1112365722657	-1137.27978515625	-278.9499511718751	227.8628845214844	-1128.822021484375	-310.2448120117188	153.1952209472657	-1103.261108398438	-410.2276611328126	103.7871475219727	-1108.01611328125	-361.6761169433594	100.8904266357422	-1033.5361328125	-470.0591430664064	47.05962371826173	-1067.82763671875	-248.8894500732422	58.88990783691408	-1084.46142578125	-258.2853088378907	57.45899581909181	-1130.474853515625	-311.9235839843751	33.2085189819336	-1170.963623046875	-419.5222778320314	459.6009216308595	-631.5792236328126	-358.2854919433594	481.7554931640626	-623.1735839843751	-346.9896240234376	514.1268310546876	-633.5233764648439	-290.0321960449219	435.3375854492189	-606.0402832031251	-198.6219482421876	419.9456481933595	-594.1325683593751	-165.5976257324219	396.3201904296876	-728.9697265625001	-235.3397827148438	255.3345184326172	-618.9860839843751	-344.4694824218751	239.9022369384766	-616.3342285156251	-307.3151550292969	210.8321990966797	-618.5653076171876	-315.6645202636719	160.8403778076172	-647.2714843750001	-425.1379699707032	100.7243423461914	-642.9032592773439	-384.2063903808595	96.67104339599612	-722.9371337890626	-484.0232543945314	48.05916213989259	-701.2487792968751	-267.6507568359376	54.8290252685547	-647.3317260742189	-281.0910339355469	58.70531845092775	-609.9882812500001	-333.8595581054688	35.44841766357423	-568.1557617187501	nan	nan	nan	nan	nan	nan	
596	2.975	-16.42070388793946	1025.979736328125	-888.6724243164065	-145.4193878173828	984.8098144531252	-927.2078247070315	-200.0623474121094	954.616394042969	-793.949890136719	-217.5566864013672	892.5405273437502	-845.2727050781252	-474.6199645996095	722.4675903320314	-858.4917602539065	-156.2199401855469	751.6319580078126	-844.994567871094	-127.1098709106446	796.5209960937502	-1011.19970703125	-228.9153594970704	723.6696166992189	-1181.400268554688	-257.6072692871094	684.9746093750001	-1172.20654296875	-275.4941406250001	699.3161010742189	-1227.99658203125	-326.2870788574219	684.3645629882814	-1272.38623046875	-367.7570190429688	746.4825439453126	-1259.285034179688	-563.5484619140626	603.1287841796876	-1110.06201171875	-535.4983520507814	537.8385620117189	-1132.064697265625	-526.5650024414064	598.8172607421876	-1051.534790039063	-129.9641265869141	782.5193481445315	-679.6778564453126	-250.8217163085938	769.8045043945315	-509.4958496093751	-275.2673034667969	725.6939697265626	-507.717498779297	-299.2652587890626	754.7760620117189	-460.8672485351564	-354.6543579101563	723.8859863281251	-423.8198547363282	-409.3605957031251	784.1985473632815	-459.8592224121095	-529.6300659179689	603.7265014648439	-617.5582275390626	-514.6520385742189	540.2008056640626	-578.0408325195314	-480.3470764160157	590.1147460937501	-668.8408813476564	-463.6556701660157	513.7576904296876	-969.0647583007815	-472.8006286621095	513.7826538085939	-761.0484619140626	-613.6151123046876	618.6798706054689	-861.959899902344	-635.4231567382814	596.3273925781251	-890.8264160156252	-643.0212402343751	596.3579101562501	-837.306823730469	-426.238250732422	433.0499267578126	-1097.298828125	-349.3666076660157	466.6836853027345	-1115.993041992188	-341.4260253906251	512.3151245117189	-1103.63134765625	-298.8096618652344	436.9949035644532	-1124.152709960938	-181.3446502685547	441.9546813964845	-1137.70556640625	-156.5890655517578	395.452117919922	-1011.695922851563	-226.0286865234376	245.8147888183594	-1111.881225585938	-314.7489318847657	257.0250244140626	-1137.347412109375	-279.0139770507813	227.8706665039063	-1128.732543945313	-309.7657165527344	152.8122100830078	-1103.097045898438	-410.2146301269532	103.7944717407227	-1107.98291015625	-361.7326965332032	100.8867645263672	-1033.4501953125	-469.9988098144532	46.95599365234376	-1067.84033203125	-249.3198547363282	59.24477767944337	-1084.367553710938	-258.2554321289063	57.47853851318361	-1130.48193359375	-311.5762939453126	32.98931121826173	-1170.908813476563	-419.7295227050782	459.6924133300782	-631.5357666015626	-358.4386901855469	481.8764648437501	-623.2866210937501	-348.8402404785157	513.7887573242189	-634.6072998046876	-290.2422180175782	435.3494262695314	-606.1853637695314	-198.7126922607422	420.1643676757814	-594.1096191406251	-165.6335754394532	396.4595031738282	-728.9615478515626	-235.4165344238282	255.3191833496094	-618.8961181640626	-344.5653381347657	239.8567810058594	-616.2792358398439	-307.4109802246094	210.8773803710938	-618.5424804687501	-315.6770324707032	160.782470703125	-647.2740478515626	-425.1655578613282	100.7078475952149	-642.9122314453126	-384.2822875976564	96.72087860107425	-722.9349365234376	-484.0213623046876	48.04868316650392	-701.2304077148439	-267.6381835937501	54.83988189697267	-647.3316650390626	-281.0845031738282	58.7122268676758	-609.9733886718751	-333.8186340332032	35.42521667480469	-568.1611938476564	nan	nan	nan	nan	nan	nan	
597	2.98	-16.15496444702149	1025.783203125	-888.458679199219	-145.8207092285157	984.8506469726565	-927.0241699218752	-199.8801269531251	954.4041137695315	-793.719177246094	-217.3358459472657	892.4523925781252	-845.0587158203127	-474.5655822753907	722.4573974609376	-858.5412597656252	-156.2534332275391	751.1837158203126	-844.7224121093752	-126.7739791870117	796.3755493164065	-1010.905700683594	-228.6352691650391	723.3604736328126	-1181.313110351563	-257.1575317382813	684.5839233398439	-1172.091430664063	-274.9520874023438	698.8390502929689	-1227.973510742188	-325.7574462890626	684.1043090820314	-1272.214599609375	-367.2980346679688	746.3068237304689	-1259.342529296875	-563.6351318359376	603.5112304687501	-1110.185546875	-535.4365234375001	537.9741821289064	-1132.079833984375	-526.5480957031251	598.9935302734376	-1051.562866210938	-129.6983489990235	782.1027832031252	-679.5612792968751	-250.6271209716797	769.362731933594	-509.2216186523439	-275.1089172363282	725.3588256835939	-507.7248840332032	-299.2206726074219	754.4050903320314	-460.8377075195314	-354.4437866210938	723.2738647460939	-424.1391906738282	-408.5740966796876	784.0910644531252	-459.238250732422	-529.8590087890626	603.9692382812501	-617.7150268554689	-514.9074096679689	540.0810546875001	-578.5620727539064	-480.0985717773439	590.0042114257814	-668.4888916015626	-463.8741455078126	513.6619873046876	-968.9758911132815	-473.075408935547	514.0800170898439	-760.9887084960939	-613.8131713867189	618.8604736328126	-862.084899902344	-635.6026000976564	596.4641113281251	-891.0064086914065	-643.1946411132814	596.6032714843751	-837.4161376953127	-426.2063903808595	433.1625061035157	-1097.305908203125	-349.4001770019532	466.7275695800782	-1115.934814453125	-341.3628234863282	512.3375854492189	-1103.592895507813	-298.7645874023438	436.9791870117189	-1124.024291992188	-181.26171875	441.9691467285157	-1137.493286132813	-156.9149627685547	395.5157775878907	-1011.53955078125	-225.9891052246094	245.7036132812501	-1111.750122070313	-314.6949157714844	256.9757385253907	-1137.182495117188	-278.8812561035157	227.9565582275391	-1128.60595703125	-309.8177185058594	152.8377685546875	-1102.9931640625	-410.196746826172	103.8445510864258	-1107.9541015625	-361.7735900878907	100.8750991821289	-1033.492553710938	-470.0481567382814	47.04203796386719	-1067.770629882813	-249.0065155029297	58.91440200805665	-1084.40087890625	-258.2911987304688	57.50453567504884	-1130.486206054688	-311.9038391113282	33.21801376342774	-1170.9462890625	-419.8604125976564	459.6707153320314	-631.6889648437501	-358.5355529785157	481.8404541015626	-623.3562622070314	-348.9747314453126	513.8795166015626	-634.5955810546876	-290.3427124023438	435.2539062500001	-605.4993896484376	-198.8811645507813	420.1212158203126	-594.1458129882814	-165.8406524658203	396.5252990722657	-728.9462890625001	-235.0282897949219	255.8708190917969	-618.5774536132814	-344.5729370117188	239.9432525634766	-616.2620849609376	-307.4734802246094	210.8908081054688	-618.5603637695314	-315.6715698242188	160.7754211425782	-647.2613525390626	-425.2249450683595	100.7181167602539	-642.9084472656251	-384.318084716797	96.69025421142581	-722.8892822265626	-484.0395507812501	48.07229232788087	-701.2429809570314	-267.6128234863282	54.93501281738283	-647.3743286132814	-281.1086425781251	58.71605300903322	-609.9475708007814	-333.8764953613282	35.43317794799805	-568.1382446289064	nan	nan	nan	nan	nan	nan	
598	2.985	-16.10078430175782	1025.600708007813	-888.2395629882815	-145.5271148681641	984.3577270507815	-926.7741699218752	-199.7695922851563	954.0994262695315	-793.5463867187502	-217.1675109863282	892.220153808594	-844.8652954101565	-474.6064758300782	722.6054077148439	-858.5545043945315	-156.2064971923828	750.9579467773439	-844.5555419921877	-126.4342346191407	796.1338500976565	-1010.645263671875	-228.1496276855469	722.9232788085939	-1181.217651367188	-256.7861633300782	684.0642089843751	-1171.879516601563	-274.6192626953126	698.5906372070314	-1227.897338867188	-325.3493041992188	683.7477416992189	-1272.145141601563	-366.8629150390626	746.1748657226564	-1259.398681640625	-565.1408081054689	605.3099365234376	-1110.716796875	-535.5319213867189	538.2254638671876	-1132.127319335938	-526.5508422851564	599.1770629882814	-1051.578979492188	-129.481674194336	781.9717407226565	-679.4521484375001	-250.3904571533204	769.2210083007815	-509.0037231445314	-275.3265991210938	725.0225219726564	-507.5511474609376	-299.1293334960938	753.8552856445314	-460.6037597656251	-354.6312561035157	722.8089599609376	-423.833953857422	-408.6497192382814	783.539489746094	-459.3210754394532	-530.0433959960939	604.0415039062501	-617.7847290039064	-514.9377441406251	540.1464843750001	-578.6434936523439	-480.2320861816407	590.0555419921876	-668.5406494140626	-455.6321716308595	533.0355834960939	-968.2463989257815	-464.1976318359376	537.4794311523439	-760.3038940429689	-617.4338989257814	621.1759643554689	-863.4099121093752	-635.6203002929689	596.5120239257814	-891.0811157226565	-643.2768554687501	596.7219238281251	-837.5314941406252	-426.2483520507814	433.2195739746095	-1097.223510742188	-349.4117126464844	466.8325500488282	-1115.8623046875	-341.3343200683594	512.4658203125001	-1103.463745117188	-298.7415771484376	437.0615234375001	-1123.981811523438	-181.20849609375	441.9411010742189	-1137.203979492188	-156.8792266845703	395.5763244628907	-1011.254333496094	-226.3774414062501	245.8544006347657	-1111.859741210938	-314.7557067871094	257.0710449218751	-1137.124877929688	-278.8915405273438	227.9896087646485	-1128.57275390625	-309.7676696777344	152.8172454833985	-1102.841552734375	-410.2092590332032	103.7769851684571	-1107.880249023438	-361.7246398925782	100.8368835449219	-1033.391723632813	-470.0054626464845	46.9859962463379	-1067.7646484375	-248.9418945312501	58.89181137084962	-1084.343383789063	-258.2561950683594	57.52952575683595	-1130.422607421875	-311.9332885742188	33.2311134338379	-1170.881713867188	-419.9706115722657	459.7107238769532	-631.7876586914064	-358.2730407714844	482.5080566406251	-622.4185180664064	-348.1283264160157	514.2742309570314	-633.8650512695314	-290.4837646484376	435.3585815429689	-605.6525268554689	-199.1658020019532	420.3552856445314	-594.1467895507814	-165.876953125	396.5697326660157	-729.0278930664064	-235.5869750976563	255.6030426025391	-618.9226684570314	-344.7413635253907	240.1017456054688	-616.1947021484376	-307.5382385253907	210.9437255859376	-618.5458984375001	-315.7723999023438	160.9244232177735	-647.2316894531251	-425.1675109863282	100.641471862793	-642.8870239257814	-384.2474670410157	96.69743347167972	-722.8540039062501	-484.0339965820314	48.02181243896486	-701.2145385742189	-267.6564331054688	54.99070358276369	-647.3347167968751	-281.1445312500001	58.68851852416994	-609.9423828125001	-333.8337402343751	35.42600250244141	-568.1358642578126	nan	nan	nan	nan	nan	nan	
